<svg width="66" height="86" viewBox="0 0 66 86" fill="none" xmlns="http://www.w3.org/2000/svg">
<path d="M46.1351 43.6736C52.6052 42.2956 56.3387 36.0898 56.7079 31.581C50.2424 26.222 41.7578 31.9929 39.7383 35.2914C39.7383 35.2914 38.1331 35.2939 36.1256 35.4762C36.1256 35.4496 36.1221 35.4255 36.1221 35.3989C36.1279 34.4423 36.3398 33.2912 37.2145 31.8902C38.0952 30.4952 39.6931 28.832 42.5767 27.1157C45.6567 25.28 48.6325 23.1481 50.9526 20.6842C52.1125 19.4474 53.1105 18.1223 53.8455 16.6657C54.5771 15.214 55.0412 13.6077 55.0412 11.9167C55.0412 10.8285 54.8458 9.71735 54.4469 8.6447C53.848 7.02985 53.1685 5.99953 51.7386 4.59245C50.3028 3.18303 46.7055 1.29036 43.2894 0.189993C41.0012 -0.546718 40.5775 1.01489 42.1956 2.20713C44.6649 4.02606 46.741 5.5057 48.5592 7.8754C49.0493 8.51435 49.7145 9.86465 49.9122 10.3961C50.1099 10.9299 50.1904 11.419 50.1927 11.9167C50.1916 12.6813 49.9866 13.4977 49.5321 14.4072C49.1558 15.1621 48.2562 16.3409 47.5495 17.1513C47.3055 17.4303 47.624 18.829 47.347 19.1105C47.1978 18.5149 42.9377 13.0895 39.0646 12.2043C37.1459 11.7659 36.8925 13.0292 38.5593 14.0595C42.3685 16.4148 42.3981 18.079 42.4691 19.2145C42.4869 19.4923 42.4064 19.8534 42.0891 20.4235C41.7719 20.9887 40.9019 22.0637 39.8769 22.9346C39.7086 23.0796 38.6493 23.675 38.5287 23.8514C35.3823 25.7911 34.4626 27.1137 33.1381 29.214C31.7509 31.4013 31.2668 33.5971 31.2738 35.3993C31.2738 35.7171 31.2928 36.0164 31.3176 36.3088C30.7329 36.4815 30.1884 36.6807 29.7291 36.9187C29.7291 36.9187 16.461 46.3758 16.1402 47.0318C15.8182 47.6887 13.8889 53.2641 13.8889 53.2641C13.8889 53.2641 1.02905 62.4494 0.0655521 63.4337C-0.8991 64.418 9.06644 74.5879 11.3166 73.932C13.5669 73.2749 28.8295 69.6661 28.8295 69.6661L34.0802 86H66L46.1351 43.6736Z" fill="black"/>
</svg>
