<svg width="74" height="52" viewBox="0 0 74 52" fill="none" xmlns="http://www.w3.org/2000/svg">
<path d="M73.7282 23.6033C73.2817 22.987 72.8984 22.3104 72.3829 21.7616C71.8313 21.1739 71.4294 20.5122 71.1956 19.7682C70.562 17.7544 69.4557 16.1173 67.6871 14.9797C67.3044 14.7335 66.8782 14.5564 66.4696 14.353C66.1468 14.1924 65.8161 14.0482 65.4953 13.8831C65.0284 13.6424 64.5173 13.4521 64.1193 13.1232C63.7964 12.8562 63.576 12.4352 63.3726 12.048C62.8598 11.0743 62.3893 10.0782 61.8878 9.09846C61.6307 8.5963 61.3199 8.5064 60.9258 8.90765C60.3921 9.45147 59.8686 10.0294 59.4632 10.6731C59.1147 11.2258 58.9462 11.8897 59.0965 12.5832C59.1775 12.9549 59.081 13.1769 58.6537 13.2828C57.7194 13.5137 56.7687 13.7351 56.1364 14.5975C55.8176 15.0322 55.3897 15.3893 55.1022 15.8416C54.5757 16.6716 54.0449 17.4962 53.3176 18.1551C52.4581 18.9336 51.0672 19.3251 49.9325 18.375C48.9663 17.5658 47.8384 17.0038 46.6086 16.7434C45.2833 16.4627 43.9393 16.2747 42.6035 16.0427C42.2815 15.9868 41.9623 15.9178 41.6719 15.8603C41.7058 15.9117 41.7689 16.0061 41.8686 16.1568C41.6739 16.2051 41.5309 16.2688 41.3865 16.272C40.4852 16.2901 39.5767 16.233 38.683 16.3257C38.1121 16.3849 37.387 16.3514 37.2004 17.1864C37.1863 17.2489 37.0807 17.3115 37.0058 17.3345C35.9273 17.67 34.9951 18.2612 34.1588 19.0177C33.404 19.7014 32.654 20.3905 31.8608 21.1153C32.3515 21.2753 32.2776 21.4871 32.0296 21.76C31.7843 22.0297 31.5692 22.3286 31.3469 22.6196C31.1468 22.8811 30.9539 23.1487 30.7355 23.4436C30.1894 22.8598 30.8752 22.6437 30.9318 22.266C30.4654 21.8685 30.4611 21.7572 30.8584 21.2111C31.1317 20.835 31.3922 20.4485 31.6499 20.0605C31.8419 19.7715 31.9379 19.4903 31.6537 19.1738C31.5739 19.0845 31.5998 18.8559 31.6397 18.7078C31.6824 18.5494 31.7999 18.4118 31.8818 18.2642C32.0716 17.9232 32.1089 17.6272 31.6786 17.4347C31.3987 17.3096 31.3255 17.1135 31.4759 16.8114C31.6516 16.4588 31.8123 16.0921 31.9196 15.7138C31.973 15.5258 31.8997 15.2976 31.8717 15.0893C31.8464 14.9008 31.7628 14.7111 31.7773 14.5285C31.8172 14.0329 31.8954 13.5405 31.9618 13.0218C31.8114 13.0218 31.6852 13.0224 31.559 13.0218C30.885 13.0197 30.8651 13.0191 30.8941 12.313C30.9141 11.8301 31.0128 11.3509 31.0473 10.8678C31.0548 10.7581 30.9417 10.541 30.8818 10.5404C30.486 10.536 30.54 10.2576 30.5006 10.0031C30.4769 9.85016 30.4057 9.63247 30.2947 9.58033C30.0192 9.452 29.9059 9.29035 29.8466 8.97833C29.7932 8.69708 29.832 8.22556 29.3181 8.2738C28.9298 8.30994 28.8694 8.12195 28.8307 7.76989C28.7579 7.1097 28.6005 6.45905 28.4641 5.7271C28.1525 6.06976 28.0268 5.89534 27.919 5.72213C27.686 5.34816 27.4721 4.96224 27.2347 4.59109C27.1022 4.38388 26.9516 4.31804 26.7085 4.50173C26.5936 4.5884 26.2712 4.59485 26.2033 4.50831C25.7687 3.95294 25.2915 3.44903 24.7373 3.01822C24.6828 2.97602 24.6494 2.90628 24.6009 2.85482C24.457 2.70243 24.3329 2.5127 24.1599 2.40963C23.4779 2.00166 22.7796 1.62178 22.111 1.24459C22.0356 1.35868 21.9724 1.48969 21.8738 1.5812C21.8463 1.60646 21.6862 1.53739 21.634 1.47209C21.1249 0.838371 20.4035 0.546641 19.763 0.197398C19.729 0.379343 19.7327 0.556988 19.6556 0.683705C19.6173 0.746727 19.4179 0.753848 19.3111 0.719851C18.5983 0.495712 17.8909 0.253299 17.1317 0C17.1317 0.210433 17.1592 0.346555 17.1226 0.460506C17.0961 0.543281 16.9732 0.664489 16.9118 0.654007C16.447 0.577816 15.9876 0.472062 15.5255 0.37773C15.0602 0.282861 14.5944 0.190814 14.0881 0.0893601C14.1733 0.74834 14.0245 0.82668 13.475 0.785024C12.7461 0.730198 12.0106 0.771318 11.2472 0.771318C11.3798 1.37937 10.955 1.35962 10.5888 1.38259C10.6918 1.90236 10.6082 2.00435 10.123 1.96041C9.89172 1.93958 9.66257 1.89403 9.40051 1.85519C9.66151 2.39525 9.60693 2.54548 9.08189 2.67811C8.47426 2.8317 7.85367 2.93531 7.24762 3.09481C7.0967 3.13486 6.85566 3.3207 6.86649 3.41449C6.92358 3.91236 6.60496 3.97041 6.26414 4.04713C6.11481 4.08059 5.97354 4.15074 5.83068 4.20946C5.63113 4.2917 5.56057 4.41008 5.6495 4.64202C5.8172 5.07887 5.73686 5.25168 5.31146 5.44679C4.94645 5.61463 4.56202 5.74511 4.21156 5.93915C4.06064 6.023 3.9721 6.2247 3.85845 6.37506C3.76898 6.49345 3.70528 6.64529 3.59216 6.72982C3.12513 7.08013 2.64423 7.41016 2.14126 7.7676C2.25769 7.87618 2.35323 7.98032 2.46371 8.06471C2.8681 8.37283 2.88647 8.47429 2.51221 8.82299C2.18064 9.13219 1.81775 9.40753 1.47799 9.70893C1.30328 9.86413 1.19717 10.0204 1.46504 10.226C1.52649 10.2732 1.48711 10.5703 1.4024 10.6772C1.24501 10.8746 1.22558 11.0117 1.34689 11.2426C1.42671 11.3944 1.43967 11.6488 1.36844 11.8028C1.23417 12.0917 1.01903 12.3423 0.835202 12.607C0.558078 13.0061 0.278841 13.4043 0 13.8027C0.0259018 13.8301 0.051275 13.857 0.0770447 13.8844C0.413504 13.8219 0.749963 13.76 1.08642 13.6973C1.12528 13.7292 1.16347 13.7609 1.20232 13.7928C0.865861 14.4939 0.529401 15.1952 0.149861 15.9858C0.347692 15.9293 0.436631 15.8827 0.525173 15.8844C0.625476 15.8866 0.764632 15.9008 0.813661 15.9661C0.865464 16.0352 0.869693 16.1903 0.829255 16.2748C0.486848 16.9815 0.472312 17.7216 0.569972 18.4963C0.652567 18.3434 0.707939 18.1975 0.800181 18.0819C0.879472 17.9826 1.00132 17.9185 1.10373 17.8389C1.15012 17.9733 1.23483 18.107 1.23642 18.2419C1.24818 19.101 1.2417 19.9601 1.2417 20.794C1.8052 20.9514 2.13624 21.2162 2.39711 21.6915C2.59454 22.0512 2.76489 22.4277 2.97884 22.7771C3.06619 22.9197 3.24196 23.1116 3.36816 23.1045C3.80651 23.0792 3.93919 23.4252 3.98769 23.6906C4.09064 24.2553 4.36617 24.1867 4.75919 24.0536C5.33287 23.859 5.52594 23.9532 5.81496 24.4752C5.88236 24.5975 5.95623 24.7159 6.03393 24.8469C6.13741 24.7148 6.22053 24.581 6.32929 24.4736C6.79037 24.0185 7.04966 24.0526 7.3947 24.5915C7.58725 24.893 7.7905 25.188 8.02666 25.5427C8.25581 25.0673 8.43646 24.6698 8.63799 24.2844C8.70975 24.1479 8.8316 24.0388 8.93071 23.9172C9.05533 24.0575 9.22356 24.1781 9.29466 24.3421C9.44399 24.6886 9.54218 25.0576 9.69151 25.5082C9.79393 25.2148 9.87428 25.006 9.94009 24.7933C10.0516 24.4337 10.2151 24.3866 10.5003 24.6409C10.7198 24.8372 10.9376 25.0352 11.1877 25.2611C11.6137 24.7879 12.011 24.3444 12.4105 23.9036C12.6208 23.6717 12.8106 23.6799 13.0003 23.9426C13.1227 24.112 13.2748 24.2584 13.4689 24.4777C13.505 24.2238 13.4933 24.0412 13.5595 23.8959C13.6813 23.6295 13.8194 23.2035 14.0038 23.1722C14.3197 23.119 14.1881 23.522 14.2415 23.7352C14.2469 23.7566 14.2718 23.7725 14.2868 23.7906C14.7247 23.5763 14.8358 23.6201 14.9015 24.0829C14.9554 24.4634 14.9883 24.8488 14.9958 25.2331C15.0088 25.8757 14.8556 25.9777 14.2679 25.7748C14.2296 25.982 14.1645 26.1904 14.1579 26.4008C14.1477 26.7293 14.1864 27.0588 14.1864 27.3878C14.1864 27.5457 14.1633 27.7091 14.1201 27.861C14.0257 28.1942 13.8414 28.5178 13.8252 28.8523C13.8086 29.1992 13.7405 29.4082 13.4245 29.4235C13.4478 29.8983 13.4315 30.3436 13.4984 30.776C13.6526 31.7749 14.318 32.4251 15.0449 33.0343C15.1656 33.1358 15.239 33.3681 15.2266 33.5322C15.2201 33.6176 14.9834 33.7362 14.8427 33.7492C14.5046 33.7809 14.1612 33.7595 13.7401 33.7595C14.1218 34.1625 14.4831 34.5442 14.9123 34.9965C14.7161 34.9477 14.6233 34.9246 14.5305 34.9021C14.5246 34.9224 14.5181 34.9427 14.5122 34.963C14.621 35.0086 14.7305 35.054 14.8395 35.0995C14.7166 35.1757 14.6195 35.1697 14.5274 35.1456C14.4136 35.1154 14.3036 35.0705 14.1138 35.0053C14.2012 35.2021 14.2455 35.3167 14.301 35.4253C14.6509 36.1106 15.2003 36.5716 15.8851 36.8826C16.0873 36.9748 16.2571 37.1567 16.022 37.3206C15.7265 37.5262 15.883 37.6973 15.967 37.8958C16.029 38.0426 16.1848 38.2274 16.1423 38.3212C16.0856 38.4451 15.8753 38.496 15.6958 38.5991C15.9579 38.8848 16.2307 39.1703 16.489 39.4692C16.5953 39.5925 16.7332 39.7422 16.7397 39.8853C16.7467 40.0444 16.6195 40.2093 16.5273 40.427C16.9323 40.7998 17.5043 41.324 18.0721 41.853C18.1578 41.9326 18.2226 42.0355 18.297 42.1277C18.2053 42.2023 18.1174 42.2834 18.0204 42.3491C17.9574 42.3919 17.8797 42.4138 17.8522 42.4258C18.0797 42.6797 18.2922 42.9462 18.5349 43.1813C18.9274 43.5624 19.3469 43.9149 19.7367 44.2992C19.8197 44.3808 19.8223 44.547 19.8715 44.7043C20.0229 44.786 20.2408 44.8836 20.4371 45.0137C21.0986 45.4517 21.7483 45.9046 22.6062 45.7724C22.9017 45.7268 22.9329 45.9582 22.893 46.1681C22.8385 46.4561 22.7436 46.7362 22.654 47.0645C22.9221 47.1248 23.1829 47.1654 23.431 47.247C23.5486 47.286 23.6412 47.4033 23.7448 47.4855C23.6694 47.5754 23.6046 47.6785 23.5162 47.7524C23.396 47.8538 23.258 47.9334 23.1372 48.0162C23.6673 48.1133 24.1723 48.2015 24.6761 48.2996C25.0001 48.3626 25.0378 48.582 25.0147 48.8823C25.0017 49.047 25.0751 49.3062 25.1932 49.3752C25.4402 49.52 25.7405 49.5721 26.0219 49.6516C26.2149 49.7065 26.4134 49.7432 26.6096 49.7876C26.4824 49.9767 26.3551 50.1648 26.2296 50.3551C26.2192 50.371 26.2231 50.3962 26.222 50.4055C26.6798 50.3583 27.1402 50.2592 27.5948 50.2811C27.9873 50.2997 28.423 50.3578 28.5902 50.854C28.6802 51.1221 28.8808 51.0301 29.083 50.9955C29.3143 50.956 29.578 50.9231 29.785 51.0027C29.9052 51.0488 29.942 51.3213 29.984 51.4183C30.569 51.2857 31.1341 51.124 31.7094 51.0422C31.9779 51.0039 32.4124 51.0165 32.4287 51.375C32.4492 51.8241 32.6972 51.7353 32.9264 51.7193C33.1037 51.7067 33.2742 51.6123 33.4515 51.5751C33.7637 51.5099 33.9583 51.6086 33.9137 52C34.0868 51.9299 34.2356 51.8603 34.3903 51.8087C35.2611 51.518 36.1459 51.2636 36.9994 50.9281C37.3327 50.7971 37.6265 50.615 37.9943 50.7209C38.5139 50.8704 39.0277 51.1271 39.553 51.1529C40.4902 51.199 41.447 51.1956 42.3702 51.0459C43.2427 50.9044 44.0955 50.587 44.9312 50.2762C45.6095 50.024 46.1693 50.087 46.7008 50.592C46.8691 50.7517 47.1097 50.9275 47.3188 50.9304C48.3189 50.9441 49.3202 50.9151 50.3198 50.8738C51.1046 50.8415 51.8883 50.7132 52.6707 50.7285C53.595 50.7461 54.5165 50.8941 55.441 50.9352C55.6579 50.9445 55.9991 50.8047 56.0741 50.637C56.1614 50.4418 56.0747 50.1118 55.9647 49.8914C55.6568 49.2745 55.0415 49.0537 54.4645 48.792C54.3351 48.7333 54.2219 48.639 54.1011 48.5612C54.1896 48.4236 54.2525 48.2559 54.3703 48.1527C55.0711 47.5371 55.8304 46.9823 56.4837 46.3193C57.5213 45.2672 58.2938 44.0431 58.1665 42.464C58.1017 41.6604 57.9918 40.8468 57.7757 40.0743C57.6005 39.4493 57.3679 38.8066 56.7624 38.4037C56.4908 38.2227 56.7025 38.0769 56.9048 37.9843C57.652 37.6405 58.4243 37.3407 59.137 36.9344C59.8752 36.5138 60.614 36.0556 61.2414 35.4865C61.6717 35.0967 61.9463 35.0946 62.3861 35.3166C62.8946 35.5731 63.4106 35.8477 63.9546 35.993C65.2783 36.3467 66.5145 35.9519 67.6776 35.339C70.042 34.0933 71.9258 32.2748 73.5316 30.1427C73.4498 30.0336 73.3325 29.9392 73.2987 29.8203C73.1413 29.2704 72.6991 29.0511 72.1524 29.2413C71.8649 29.3417 71.5613 29.4091 71.2593 29.4463C71.1337 29.4617 70.9542 29.3937 70.8766 29.2988C70.8306 29.2429 70.9365 29.0587 71.0137 28.7982C70.3741 29.1117 69.7438 29.3086 69.251 29.6897C68.6084 30.1864 67.9948 30.6409 67.1769 30.825C66.7116 30.9297 66.4209 30.8464 66.1437 30.5098C66.0364 30.3793 65.9357 30.2423 65.818 30.121C65.5452 29.8386 65.5683 29.6621 65.9233 29.531C66.2759 29.4011 66.6388 29.3014 66.9914 29.1714C68.0434 28.7848 69.0472 28.3216 69.6047 27.2459C70.0122 26.4602 70.6751 26.2086 71.507 26.1368C72.3432 26.0644 73.138 25.821 73.5153 24.9054C73.6242 24.6417 73.8183 24.4162 73.9554 24.1631C73.9979 24.0842 74.0173 23.952 73.9806 23.8785C73.9275 23.7715 73.8016 23.7041 73.7282 23.6033Z" fill="black"/>
</svg>
