<svg width="76" height="72" viewBox="0 0 76 72" fill="none" xmlns="http://www.w3.org/2000/svg">
<path d="M74.6359 36.5657C69.692 33.8724 63.7118 32.4947 59.9455 28.3569C58.0079 26.2284 57.719 23.0742 56.0854 20.7111C55.0918 19.2739 53.6497 18.2016 52.1872 17.2253C49.5249 15.4484 46.5118 13.7741 43.5738 12.4761C42.0924 8.77786 41.8391 4.64811 40.0838 1.06995C39.9524 0.802331 39.8022 0.526569 39.5469 0.367591C39.1495 0.119877 38.6211 0.228983 38.1862 0.415906C36.949 0.947492 36.0312 1.99688 35.1586 3.01192C33.0057 5.51794 30.7911 8.13701 29.9319 11.2983C29.7675 11.9035 29.5597 12.4905 29.5725 13.1156C29.5197 13.6972 23.9995 15.2018 23.3973 15.418C20.0868 16.6057 17.5266 18.2058 14.4486 19.9218C11.6837 21.4633 8.61474 22.4694 5.47094 22.8656C6.94908 23.6032 8.73155 23.7378 10.3188 23.2313C7.10425 24.1835 4.38747 26.6698 3.19117 29.7545C2.33844 31.9537 2.13481 34.554 0.378691 36.1592C2.60185 35.4757 4.54608 33.9346 5.69877 31.9421C5.44935 34.3262 4.68649 36.6628 3.47578 38.7519C4.79799 38.2745 5.73646 37.213 6.68575 36.1525C6.48088 38.7721 6.87186 41.43 7.83807 43.8691C7.71333 42.3227 8.2052 40.7305 9.18572 39.5045C9.10893 42.8621 10.8962 45.8097 10.781 49.1667C10.6882 51.8607 9.4406 54.3796 8.21799 56.8035C9.14241 56.2512 9.99715 55.5856 10.7563 54.8277C10.553 56.6544 9.30606 58.1903 8.11092 59.6122C9.47954 59.1428 10.7417 58.3693 11.775 57.3659C12.2651 59.9076 11.8483 62.5334 11.1123 65.0289C10.4278 67.3506 9.4236 69.6849 7.58486 71.2986C12.2643 69.3563 16.6428 66.7028 20.5153 63.4628C19.3773 64.9799 18.2201 66.5335 17.6419 68.3268C19.208 66.7467 21.5669 66.2634 23.4833 65.117C25.3624 63.9931 26.7943 62.2413 28.6892 61.1435C28.5249 62.129 28.4251 63.142 28.5824 64.1257C29.2218 63.2338 30.0985 62.508 31.0971 62.0329C32.288 61.4661 33.6168 61.2614 34.8664 60.8369C37.8488 59.8241 40.348 57.4892 41.5286 54.6122C41.689 55.2178 41.8498 55.8238 42.0101 56.4295C42.9403 54.267 44.1153 52.2257 45.431 50.2675C45.9655 50.084 46.5085 49.9251 47.0682 49.8124C50.319 49.1568 53.7615 49.5317 56.7978 50.7913C57.6644 51.1509 58.5098 51.5809 59.4288 51.7824C60.3352 51.9811 61.2831 51.9491 62.2032 51.8023C63.384 51.6137 64.6264 51.1696 65.2782 50.1797C65.9295 49.1896 65.6103 47.5958 64.458 47.296C64.7394 46.4939 64.7761 45.6128 64.5623 44.7955C64.1394 45.2106 63.705 45.7704 63.2822 46.1856C62.1508 45.7022 61.3294 44.6467 61.0492 43.4647C63.0924 44.6739 65.6923 44.3071 68.0556 43.9011C68.8579 43.7632 69.6693 43.623 70.4182 43.3049C71.1672 42.9867 71.6975 42.1566 72.0602 41.4376C72.8763 41.6575 73.7645 41.2273 74.3175 40.5895C74.87 39.9518 75.1567 39.1397 75.431 38.348C75.5263 38.0735 75.6226 37.7824 75.5625 37.4996C75.4705 37.0588 75.0363 36.7838 74.6359 36.5657ZM52.7939 28.8344C51.5727 28.1033 50.6657 27.3535 50.3518 26.1206C51.3311 25.6767 52.1838 25.3399 53.1893 25.6344C53.7966 25.8123 54.7346 26.1024 55.508 26.5516C56.2814 27.0008 57.4894 27.5452 56.6453 27.854C55.8013 28.1627 53.6845 28.7188 52.7939 28.8344Z" fill="#040316"/>
</svg>
