<svg width="61" height="52" viewBox="0 0 61 52" fill="none" xmlns="http://www.w3.org/2000/svg">
<path d="M60.2959 25.9442C60.2959 27.7719 58.7367 29.2037 56.9695 29.2037H53.643L53.7158 45.4708C53.7366 49.0756 50.7532 52 47.0629 52H34.3705L30.3787 45.4911L38.778 38.6573C39.5888 37.9973 39.568 36.7686 38.7364 36.1289L26.491 26.726C24.9733 25.5583 22.9774 27.4368 24.1209 28.96L30.3787 37.3677L21.4909 44.5975C20.8568 45.1053 20.7113 45.9988 21.1271 46.6792L24.3912 51.9898H13.7569C10.0875 51.9898 7.10405 49.0756 7.10405 45.4911V29.2037H3.77761C1.90649 29.2037 0.451172 27.7821 0.451172 25.9442C0.451172 25.0303 0.763026 24.2179 1.49068 23.5071L28.1334 0.812341C28.8611 0.101543 29.6927 0 30.4203 0C31.148 0 31.9796 0.203085 32.6033 0.710799L43.6845 10.2253V6.49873C43.6845 4.70143 45.171 3.24937 47.011 3.24937H50.3374C52.1773 3.24937 53.6638 4.70143 53.6638 6.49873V18.7854L59.1525 23.497C59.9841 24.2078 60.3999 25.0201 60.2959 25.934V25.9442Z" fill="#FACC15"/>
</svg>
