<svg width="61" height="53" viewBox="0 0 61 53" fill="none" xmlns="http://www.w3.org/2000/svg">
<path d="M15.886 0H19.6273C21.6967 0 23.3686 1.69174 23.3686 3.78571V7.57143H12.1447V3.78571C12.1447 1.69174 13.8166 0 15.886 0ZM23.3686 11.3571V49.2143C23.3686 51.3083 21.6967 53 19.6273 53H4.66218C2.59278 53 0.920898 51.3083 0.920898 49.2143V42.2225C0.920898 38.1292 2.0199 34.1069 4.10099 30.5933C5.70272 27.896 6.73157 24.8911 7.11739 21.7679L7.99425 14.6696C8.22808 12.7768 9.81813 11.3571 11.7122 11.3571H23.3803H23.3686ZM50.0018 11.3571C51.8841 11.3571 53.4859 12.7768 53.7197 14.6696L54.5849 21.7679C54.9707 24.8911 55.9995 27.896 57.6013 30.5933C59.6824 34.1069 60.7814 38.1292 60.7814 42.2225V49.2143C60.7814 51.3083 59.1095 53 57.0401 53H42.075C40.0056 53 38.3337 51.3083 38.3337 49.2143V11.3571H50.0018ZM38.3337 3.78571C38.3337 1.69174 40.0056 0 42.075 0H45.8162C47.8856 0 49.5575 1.69174 49.5575 3.78571V7.57143H38.3337V3.78571ZM34.5924 11.3571V30.2857H27.1099V11.3571H34.5924Z" fill="#5AA731"/>
</svg>
