<svg width="61" height="48" viewBox="0 0 61 48" fill="none" xmlns="http://www.w3.org/2000/svg">
<path d="M26.821 0H19.0474C16.2311 0 13.7161 1.83214 12.7808 4.56429L0.538474 40.2C0.330625 40.8214 0.216309 41.4857 0.216309 42.15C0.216309 45.375 2.76246 48 5.89058 48H26.821V41.1429C26.821 39.2464 28.3071 37.7143 30.1465 37.7143C31.986 37.7143 33.4721 39.2464 33.4721 41.1429V48H54.4025C57.541 48 60.0768 45.375 60.0768 42.15C60.0768 41.4857 59.9625 40.8214 59.7546 40.2L47.5123 4.56429C46.5666 1.83214 44.062 0 41.2457 0H33.4721V6.85714C33.4721 8.75357 31.986 10.2857 30.1465 10.2857C28.3071 10.2857 26.821 8.75357 26.821 6.85714V0ZM33.4721 20.5714V27.4286C33.4721 29.325 31.986 30.8571 30.1465 30.8571C28.3071 30.8571 26.821 29.325 26.821 27.4286V20.5714C26.821 18.675 28.3071 17.1429 30.1465 17.1429C31.986 17.1429 33.4721 18.675 33.4721 20.5714Z" fill="#D83E3E"/>
</svg>
